HIERARCHY
ROOT Hips
{
	OFFSET 0.000000 0.000000 0.000000
	CHANNELS 6 Xposition Yposition Zposition Zrotation Yrotation Xrotation 
	JOINT LHipJoint
	{
		OFFSET 0.000000 0.000000 0.000000
		CHANNELS 3 Zrotation Yrotation Xrotation
		JOINT LeftUpLeg
		{
			OFFSET 1.363060 -1.794630 0.839290
			CHANNELS 3 Zrotation Yrotation Xrotation
			JOINT LeftLeg
			{
				OFFSET 2.448110 -6.726130 0.000000
				CHANNELS 3 Zrotation Yrotation Xrotation
				JOINT LeftFoot
				{
					OFFSET 2.562200 -7.039590 0.000000
					CHANNELS 3 Zrotation Yrotation Xrotation
					JOINT LeftToeBase
					{
						OFFSET 0.157640 -0.433110 2.322550
						CHANNELS 3 Zrotation Yrotation Xrotation
						End Site
						{
							OFFSET 0.000000 0.000000 0.000000
						}
					}
				}
			}
		}
	}
	JOINT RHipJoint
	{
		OFFSET 0.000000 0.000000 0.000000
		CHANNELS 3 Zrotation Yrotation Xrotation
		JOINT RightUpLeg
		{
			OFFSET -1.305520 -1.794630 0.839290
			CHANNELS 3 Zrotation Yrotation Xrotation
			JOINT RightLeg
			{
				OFFSET -2.542530 -6.985550 0.000000
				CHANNELS 3 Zrotation Yrotation Xrotation
				JOINT RightFoot
				{
					OFFSET -2.568260 -7.056230 0.000000
					CHANNELS 3 Zrotation Yrotation Xrotation
					JOINT RightToeBase
					{
						OFFSET -0.164730 -0.452590 2.363150
						CHANNELS 3 Zrotation Yrotation Xrotation
						End Site
						{
							OFFSET 0.000000 0.000000 0.000000
						}
					}
				}
			}
		}
	}
}
MOTION
Frames: 13
Frame Time: 0.008333
-1.990274 17.246667 1.700830 -144.621561 -86.467957 160.638991 -9.110098 -0.427848 -1.519522 -10.327276 -4.408127 -21.741058 -1.900726 -0.029806 14.071576 1.509340 8.025713 -7.160572 0.157200 0.000000 -30.993200 10.138068 2.281536 -1.290905 0.062411 8.823021 -39.132158 -1.121324 -3.345018 51.872621 -1.597532 -6.162072 16.491671 -2.266700 0.000000 -78.809700
-1.978834 17.245020 1.710984 -134.519082 -86.305521 150.008495 -8.840309 -0.320265 -1.545744 -10.000461 -4.523178 -21.258099 -1.879171 0.026035 14.344091 1.521181 8.051758 -7.304297 0.132100 0.000000 -31.068900 10.448245 2.561954 -1.384189 0.424620 8.510890 -40.020554 -1.251322 -3.428140 53.992721 -1.697247 -6.256188 18.510731 -2.394100 0.000000 -78.449000
-1.967182 17.243931 1.721560 -122.482687 -86.104230 137.453293 -8.535985 -0.276944 -1.598986 -9.640317 -4.658050 -20.741853 -1.850964 0.054983 14.622772 1.523488 8.044945 -7.422362 0.109500 0.000000 -31.163399 10.773500 2.771605 -1.470838 0.817172 8.141184 -40.953213 -1.333902 -3.552031 56.031717 -1.815591 -6.424961 20.500419 -2.556100 -0.000000 -77.966800
-1.955192 17.243502 1.732560 -109.791660 -85.865882 124.250265 -8.281739 -0.320120 -1.673574 -9.280419 -4.810625 -20.193742 -1.811937 0.056993 14.898719 1.515110 8.005373 -7.508318 0.089600 -0.000000 -31.278500 11.037433 2.876796 -1.562198 1.202671 7.703835 -41.937966 -1.372240 -3.717311 57.991417 -1.941932 -6.652564 22.410998 -2.752100 -0.000000 -77.423900
-1.942729 17.243766 1.743983 -98.166513 -85.579713 112.116480 -8.132907 -0.429765 -1.755364 -8.943792 -4.963045 -19.625709 -1.763324 0.044619 15.150705 1.499404 7.946931 -7.563352 0.072601 0.000000 -31.414099 11.194121 2.899195 -1.666073 1.556478 7.223327 -42.971243 -1.385074 -3.902479 59.879732 -2.064556 -6.917292 24.190840 -2.975500 0.000001 -76.859600
-1.929813 17.244840 1.755747 -88.737885 -85.247598 102.181963 -8.085952 -0.565519 -1.833062 -8.629419 -5.090640 -19.049140 -1.709952 0.031641 15.359337 1.480387 7.881417 -7.592623 0.058801 0.000000 -31.570700 11.251736 2.887445 -1.780664 1.878762 6.739943 -44.042835 -1.391698 -4.084104 61.695774 -2.175768 -7.200732 25.796964 -3.216300 0.000000 -76.393900
-1.916282 17.246725 1.767849 -81.696322 -84.882176 94.637494 -8.107226 -0.698568 -1.904521 -8.323421 -5.178624 -18.471604 -1.655885 0.025185 15.515258 1.460555 7.814244 -7.601449 0.048200 -0.000000 -31.745500 11.243362 2.878686 -1.901654 2.181420 6.281723 -45.148445 -1.402904 -4.251864 63.434520 -2.270606 -7.478146 27.182308 -3.455400 -0.000000 -76.016600
-1.901243 17.249749 1.790514 -61.546468 -83.955998 74.119246 -8.482378 -1.155990 -1.817337 -7.618826 -6.131888 -18.246675 -1.502031 -0.028220 16.223262 1.400740 7.533154 -7.670063 0.018700 0.000000 -31.968900 10.897963 2.436569 -2.232718 2.868826 4.735208 -46.300757 -1.311701 -4.555641 64.892597 -2.330862 -7.768924 28.233350 -3.705900 0.000001 -75.753200
-1.886016 17.253427 1.803110 -60.297701 -83.543653 72.374641 -8.568926 -1.222882 -1.873073 -7.296448 -6.107854 -17.681768 -1.455562 -0.007027 16.258477 1.383616 7.468156 -7.650161 0.014500 -0.000000 -32.172500 10.828125 2.509189 -2.356314 3.156947 4.388909 -47.455871 -1.356826 -4.672709 66.447916 -2.384396 -7.958206 29.091036 -3.877600 0.000001 -75.678101
-1.870133 17.257929 1.815868 -59.671188 -83.124520 71.264973 -8.650962 -1.281848 -1.932811 -6.948382 -6.048916 -17.118975 -1.410260 0.015291 16.247910 1.364880 7.392691 -7.611659 0.013400 0.000000 -32.385100 10.757486 2.590843 -2.473279 3.450364 4.080751 -48.643997 -1.405579 -4.786543 67.877510 -2.417560 -8.068359 29.671202 -3.984800 -0.000000 -75.763201
-1.853724 17.263213 1.828718 -59.479404 -82.699430 70.608327 -8.730266 -1.336304 -1.995733 -6.574085 -5.962811 -16.563482 -1.365425 0.037893 16.196229 1.344744 7.308087 -7.555554 0.015300 0.000000 -32.602000 10.683711 2.677485 -2.582498 3.746661 3.809789 -49.865520 -1.457421 -4.897125 69.167834 -2.429660 -8.078956 29.984720 -4.012900 -0.000001 -75.985100
-1.836751 17.269207 1.841587 -59.591678 -82.267270 70.275148 -8.808349 -1.388769 -2.061127 -6.173357 -5.854687 -16.019956 -1.320512 0.060311 16.109004 1.323219 7.214105 -7.483450 0.019800 0.000000 -32.821500 10.604809 2.766330 -2.682528 4.043438 3.575514 -51.118688 -1.510635 -5.003643 70.305848 -2.420901 -7.977374 30.057123 -3.954999 0.000000 -76.298000
-1.819338 17.275794 1.854421 -59.907370 -81.828178 70.168841 -8.886109 -1.441079 -2.127496 -5.747617 -5.733459 -15.494580 -1.274957 0.082167 15.992278 1.300911 7.114130 -7.397171 0.026601 -0.000000 -33.040400 10.518803 2.855760 -2.771796 4.337083 3.377352 -52.403171 -1.562560 -5.104811 71.280041 -2.392453 -7.760391 29.927159 -3.812900 0.000000 -76.650800
